<svg width="226" height="26" viewBox="0 0 226 26" fill="none" xmlns="http://www.w3.org/2000/svg">
<path d="M0.0227273 25.5V2.22727H4.94318V11.8295H14.9318V2.22727H19.8409V25.5H14.9318V15.8864H4.94318V25.5H0.0227273ZM35 18.0682V8.04545H39.8409V25.5H35.1932V22.3295H35.0114C34.6174 23.3523 33.9621 24.1742 33.0455 24.7955C32.1364 25.4167 31.0265 25.7273 29.7159 25.7273C28.5492 25.7273 27.5227 25.4621 26.6364 24.9318C25.75 24.4015 25.0568 23.6477 24.5568 22.6705C24.0644 21.6932 23.8144 20.5227 23.8068 19.1591V8.04545H28.6477V18.2955C28.6553 19.3258 28.9318 20.1402 29.4773 20.7386C30.0227 21.3371 30.7538 21.6364 31.6705 21.6364C32.2538 21.6364 32.7992 21.5038 33.3068 21.2386C33.8144 20.9659 34.2235 20.5644 34.5341 20.0341C34.8523 19.5038 35.0076 18.8485 35 18.0682ZM43.7131 25.5V8.04545H48.4062V11.0909H48.5881C48.9063 10.0076 49.4403 9.18939 50.1903 8.63636C50.9403 8.07576 51.804 7.79545 52.7812 7.79545C53.0237 7.79545 53.285 7.81061 53.5653 7.84091C53.8456 7.87121 54.0919 7.91288 54.304 7.96591V12.2614C54.0767 12.1932 53.7623 12.1326 53.3608 12.0795C52.9593 12.0265 52.5919 12 52.2585 12C51.5464 12 50.91 12.1553 50.3494 12.4659C49.7964 12.7689 49.357 13.1932 49.0312 13.7386C48.7131 14.2841 48.554 14.9129 48.554 15.625V25.5H43.7131ZM61.2841 25.8295C60.1705 25.8295 59.178 25.6364 58.3068 25.25C57.4356 24.8561 56.7462 24.2765 56.2386 23.5114C55.7386 22.7386 55.4886 21.7765 55.4886 20.625C55.4886 19.6553 55.6667 18.8409 56.0227 18.1818C56.3788 17.5227 56.8636 16.9924 57.4773 16.5909C58.0909 16.1894 58.7879 15.8864 59.5682 15.6818C60.3561 15.4773 61.1818 15.3333 62.0455 15.25C63.0606 15.1439 63.8788 15.0455 64.5 14.9545C65.1212 14.8561 65.572 14.7121 65.8523 14.5227C66.1326 14.3333 66.2727 14.053 66.2727 13.6818V13.6136C66.2727 12.8939 66.0455 12.3371 65.5909 11.9432C65.1439 11.5492 64.5076 11.3523 63.6818 11.3523C62.8106 11.3523 62.1174 11.5455 61.6023 11.9318C61.0871 12.3106 60.7462 12.7879 60.5795 13.3636L56.1023 13C56.3295 11.9394 56.7765 11.0227 57.4432 10.25C58.1098 9.4697 58.9697 8.87121 60.0227 8.45454C61.0833 8.0303 62.3106 7.81818 63.7045 7.81818C64.6742 7.81818 65.6023 7.93182 66.4886 8.15909C67.3826 8.38636 68.1742 8.73864 68.8636 9.21591C69.5606 9.69318 70.1098 10.3068 70.5114 11.0568C70.9129 11.7992 71.1136 12.6894 71.1136 13.7273V25.5H66.5227V23.0795H66.3864C66.1061 23.625 65.7311 24.1061 65.2614 24.5227C64.7917 24.9318 64.2273 25.2538 63.5682 25.4886C62.9091 25.7159 62.1477 25.8295 61.2841 25.8295ZM62.6705 22.4886C63.3826 22.4886 64.0114 22.3485 64.5568 22.0682C65.1023 21.7803 65.5303 21.3939 65.8409 20.9091C66.1515 20.4242 66.3068 19.875 66.3068 19.2614V17.4091C66.1553 17.5076 65.947 17.5985 65.6818 17.6818C65.4242 17.7576 65.1326 17.8295 64.8068 17.8977C64.4811 17.9583 64.1553 18.0152 63.8295 18.0682C63.5038 18.1136 63.2083 18.1553 62.9432 18.1932C62.375 18.2765 61.8788 18.4091 61.4545 18.5909C61.0303 18.7727 60.7008 19.0189 60.4659 19.3295C60.2311 19.6326 60.1136 20.0114 60.1136 20.4659C60.1136 21.125 60.3523 21.6288 60.8295 21.9773C61.3144 22.3182 61.928 22.4886 62.6705 22.4886ZM77.983 2.22727V11.0682H74.5284V2.22727H77.983ZM96.0795 13.0227L91.6477 13.2955C91.572 12.9167 91.4091 12.5758 91.1591 12.2727C90.9091 11.9621 90.5795 11.7159 90.1705 11.5341C89.7689 11.3447 89.2879 11.25 88.7273 11.25C87.9773 11.25 87.3447 11.4091 86.8295 11.7273C86.3144 12.0379 86.0568 12.4545 86.0568 12.9773C86.0568 13.3939 86.2235 13.7462 86.5568 14.0341C86.8902 14.322 87.4621 14.553 88.2727 14.7273L91.4318 15.3636C93.1288 15.7121 94.3939 16.2727 95.2273 17.0455C96.0606 17.8182 96.4773 18.8333 96.4773 20.0909C96.4773 21.2348 96.1402 22.2386 95.4659 23.1023C94.7992 23.9659 93.8826 24.6402 92.7159 25.125C91.5568 25.6023 90.2197 25.8409 88.7045 25.8409C86.3939 25.8409 84.553 25.3598 83.1818 24.3977C81.8182 23.428 81.0189 22.1098 80.7841 20.4432L85.5455 20.1932C85.6894 20.8977 86.0379 21.4356 86.5909 21.8068C87.1439 22.1705 87.8523 22.3523 88.7159 22.3523C89.5644 22.3523 90.2462 22.1894 90.7614 21.8636C91.2841 21.5303 91.5492 21.1023 91.5568 20.5795C91.5492 20.1402 91.3636 19.7803 91 19.5C90.6364 19.2121 90.0758 18.9924 89.3182 18.8409L86.2955 18.2386C84.5909 17.8977 83.322 17.3068 82.4886 16.4659C81.6629 15.625 81.25 14.553 81.25 13.25C81.25 12.1288 81.553 11.1629 82.1591 10.3523C82.7727 9.54167 83.6326 8.91667 84.7386 8.47727C85.8523 8.03788 87.1553 7.81818 88.6477 7.81818C90.8523 7.81818 92.5871 8.28409 93.8523 9.21591C95.125 10.1477 95.8674 11.4167 96.0795 13.0227Z" fill="white"/>
<path d="M0.0227273 25.5V2.22727H4.94318V11.8295H14.9318V2.22727H19.8409V25.5H14.9318V15.8864H4.94318V25.5H0.0227273ZM35 18.0682V8.04545H39.8409V25.5H35.1932V22.3295H35.0114C34.6174 23.3523 33.9621 24.1742 33.0455 24.7955C32.1364 25.4167 31.0265 25.7273 29.7159 25.7273C28.5492 25.7273 27.5227 25.4621 26.6364 24.9318C25.75 24.4015 25.0568 23.6477 24.5568 22.6705C24.0644 21.6932 23.8144 20.5227 23.8068 19.1591V8.04545H28.6477V18.2955C28.6553 19.3258 28.9318 20.1402 29.4773 20.7386C30.0227 21.3371 30.7538 21.6364 31.6705 21.6364C32.2538 21.6364 32.7992 21.5038 33.3068 21.2386C33.8144 20.9659 34.2235 20.5644 34.5341 20.0341C34.8523 19.5038 35.0076 18.8485 35 18.0682ZM43.7131 25.5V8.04545H48.4062V11.0909H48.5881C48.9063 10.0076 49.4403 9.18939 50.1903 8.63636C50.9403 8.07576 51.804 7.79545 52.7812 7.79545C53.0237 7.79545 53.285 7.81061 53.5653 7.84091C53.8456 7.87121 54.0919 7.91288 54.304 7.96591V12.2614C54.0767 12.1932 53.7623 12.1326 53.3608 12.0795C52.9593 12.0265 52.5919 12 52.2585 12C51.5464 12 50.91 12.1553 50.3494 12.4659C49.7964 12.7689 49.357 13.1932 49.0312 13.7386C48.7131 14.2841 48.554 14.9129 48.554 15.625V25.5H43.7131ZM61.2841 25.8295C60.1705 25.8295 59.178 25.6364 58.3068 25.25C57.4356 24.8561 56.7462 24.2765 56.2386 23.5114C55.7386 22.7386 55.4886 21.7765 55.4886 20.625C55.4886 19.6553 55.6667 18.8409 56.0227 18.1818C56.3788 17.5227 56.8636 16.9924 57.4773 16.5909C58.0909 16.1894 58.7879 15.8864 59.5682 15.6818C60.3561 15.4773 61.1818 15.3333 62.0455 15.25C63.0606 15.1439 63.8788 15.0455 64.5 14.9545C65.1212 14.8561 65.572 14.7121 65.8523 14.5227C66.1326 14.3333 66.2727 14.053 66.2727 13.6818V13.6136C66.2727 12.8939 66.0455 12.3371 65.5909 11.9432C65.1439 11.5492 64.5076 11.3523 63.6818 11.3523C62.8106 11.3523 62.1174 11.5455 61.6023 11.9318C61.0871 12.3106 60.7462 12.7879 60.5795 13.3636L56.1023 13C56.3295 11.9394 56.7765 11.0227 57.4432 10.25C58.1098 9.4697 58.9697 8.87121 60.0227 8.45454C61.0833 8.0303 62.3106 7.81818 63.7045 7.81818C64.6742 7.81818 65.6023 7.93182 66.4886 8.15909C67.3826 8.38636 68.1742 8.73864 68.8636 9.21591C69.5606 9.69318 70.1098 10.3068 70.5114 11.0568C70.9129 11.7992 71.1136 12.6894 71.1136 13.7273V25.5H66.5227V23.0795H66.3864C66.1061 23.625 65.7311 24.1061 65.2614 24.5227C64.7917 24.9318 64.2273 25.2538 63.5682 25.4886C62.9091 25.7159 62.1477 25.8295 61.2841 25.8295ZM62.6705 22.4886C63.3826 22.4886 64.0114 22.3485 64.5568 22.0682C65.1023 21.7803 65.5303 21.3939 65.8409 20.9091C66.1515 20.4242 66.3068 19.875 66.3068 19.2614V17.4091C66.1553 17.5076 65.947 17.5985 65.6818 17.6818C65.4242 17.7576 65.1326 17.8295 64.8068 17.8977C64.4811 17.9583 64.1553 18.0152 63.8295 18.0682C63.5038 18.1136 63.2083 18.1553 62.9432 18.1932C62.375 18.2765 61.8788 18.4091 61.4545 18.5909C61.0303 18.7727 60.7008 19.0189 60.4659 19.3295C60.2311 19.6326 60.1136 20.0114 60.1136 20.4659C60.1136 21.125 60.3523 21.6288 60.8295 21.9773C61.3144 22.3182 61.928 22.4886 62.6705 22.4886ZM77.983 2.22727V11.0682H74.5284V2.22727H77.983ZM96.0795 13.0227L91.6477 13.2955C91.572 12.9167 91.4091 12.5758 91.1591 12.2727C90.9091 11.9621 90.5795 11.7159 90.1705 11.5341C89.7689 11.3447 89.2879 11.25 88.7273 11.25C87.9773 11.25 87.3447 11.4091 86.8295 11.7273C86.3144 12.0379 86.0568 12.4545 86.0568 12.9773C86.0568 13.3939 86.2235 13.7462 86.5568 14.0341C86.8902 14.322 87.4621 14.553 88.2727 14.7273L91.4318 15.3636C93.1288 15.7121 94.3939 16.2727 95.2273 17.0455C96.0606 17.8182 96.4773 18.8333 96.4773 20.0909C96.4773 21.2348 96.1402 22.2386 95.4659 23.1023C94.7992 23.9659 93.8826 24.6402 92.7159 25.125C91.5568 25.6023 90.2197 25.8409 88.7045 25.8409C86.3939 25.8409 84.553 25.3598 83.1818 24.3977C81.8182 23.428 81.0189 22.1098 80.7841 20.4432L85.5455 20.1932C85.6894 20.8977 86.0379 21.4356 86.5909 21.8068C87.1439 22.1705 87.8523 22.3523 88.7159 22.3523C89.5644 22.3523 90.2462 22.1894 90.7614 21.8636C91.2841 21.5303 91.5492 21.1023 91.5568 20.5795C91.5492 20.1402 91.3636 19.7803 91 19.5C90.6364 19.2121 90.0758 18.9924 89.3182 18.8409L86.2955 18.2386C84.5909 17.8977 83.322 17.3068 82.4886 16.4659C81.6629 15.625 81.25 14.553 81.25 13.25C81.25 12.1288 81.553 11.1629 82.1591 10.3523C82.7727 9.54167 83.6326 8.91667 84.7386 8.47727C85.8523 8.03788 87.1553 7.81818 88.6477 7.81818C90.8523 7.81818 92.5871 8.28409 93.8523 9.21591C95.125 10.1477 95.8674 11.4167 96.0795 13.0227Z" fill="#E10D0D"/>
<path d="M107.023 25.5V2.22727H111.943V12.4886H112.25L120.625 2.22727H126.523L117.886 12.6477L126.625 25.5H120.739L114.364 15.9318L111.943 18.8864V25.5H107.023ZM130.088 25.5V8.04545H134.929V25.5H130.088ZM132.52 5.79545C131.8 5.79545 131.183 5.55682 130.668 5.07954C130.16 4.5947 129.906 4.01515 129.906 3.34091C129.906 2.67424 130.16 2.10227 130.668 1.625C131.183 1.14015 131.8 0.897726 132.52 0.897726C133.24 0.897726 133.853 1.14015 134.361 1.625C134.876 2.10227 135.134 2.67424 135.134 3.34091C135.134 4.01515 134.876 4.5947 134.361 5.07954C133.853 5.55682 133.24 5.79545 132.52 5.79545ZM148.091 8.04545V11.6818H137.58V8.04545H148.091ZM139.966 3.86364H144.807V20.1364C144.807 20.5833 144.875 20.9318 145.011 21.1818C145.148 21.4242 145.337 21.5947 145.58 21.6932C145.83 21.7917 146.117 21.8409 146.443 21.8409C146.67 21.8409 146.898 21.822 147.125 21.7841C147.352 21.7386 147.527 21.7045 147.648 21.6818L148.409 25.2841C148.167 25.3598 147.826 25.447 147.386 25.5455C146.947 25.6515 146.413 25.7159 145.784 25.7386C144.617 25.7841 143.595 25.6288 142.716 25.2727C141.845 24.9167 141.167 24.3636 140.682 23.6136C140.197 22.8636 139.958 21.9167 139.966 20.7727V3.86364ZM158.943 25.8409C157.155 25.8409 155.617 25.4621 154.33 24.7045C153.049 23.9394 152.064 22.8788 151.375 21.5227C150.693 20.1667 150.352 18.6061 150.352 16.8409C150.352 15.053 150.697 13.4848 151.386 12.1364C152.083 10.7803 153.072 9.72348 154.352 8.96591C155.633 8.20076 157.155 7.81818 158.92 7.81818C160.443 7.81818 161.777 8.0947 162.92 8.64773C164.064 9.20076 164.97 9.97727 165.636 10.9773C166.303 11.9773 166.67 13.1515 166.739 14.5H162.17C162.042 13.6288 161.701 12.928 161.148 12.3977C160.602 11.8598 159.886 11.5909 159 11.5909C158.25 11.5909 157.595 11.7955 157.034 12.2045C156.481 12.6061 156.049 13.1932 155.739 13.9659C155.428 14.7386 155.273 15.6742 155.273 16.7727C155.273 17.8864 155.424 18.8333 155.727 19.6136C156.038 20.3939 156.473 20.9886 157.034 21.3977C157.595 21.8068 158.25 22.0114 159 22.0114C159.553 22.0114 160.049 21.8977 160.489 21.6705C160.936 21.4432 161.303 21.1136 161.591 20.6818C161.886 20.2424 162.08 19.7159 162.17 19.1023H166.739C166.663 20.4356 166.299 21.6098 165.648 22.625C165.004 23.6326 164.114 24.4205 162.977 24.9886C161.841 25.5568 160.496 25.8409 158.943 25.8409ZM174.679 15.4091V25.5H169.838V2.22727H174.543V11.125H174.747C175.141 10.0947 175.777 9.28788 176.656 8.70454C177.535 8.11364 178.637 7.81818 179.963 7.81818C181.175 7.81818 182.232 8.08333 183.134 8.61364C184.043 9.13636 184.747 9.89015 185.247 10.875C185.755 11.8523 186.005 13.0227 185.997 14.3864V25.5H181.156V15.25C181.164 14.1742 180.891 13.3371 180.338 12.7386C179.793 12.1402 179.027 11.8409 178.043 11.8409C177.384 11.8409 176.8 11.9811 176.293 12.2614C175.793 12.5417 175.399 12.9508 175.111 13.4886C174.83 14.0189 174.687 14.6591 174.679 15.4091ZM197.761 25.8409C195.966 25.8409 194.42 25.4773 193.125 24.75C191.837 24.0152 190.845 22.9773 190.148 21.6364C189.451 20.2879 189.102 18.6932 189.102 16.8523C189.102 15.0568 189.451 13.4811 190.148 12.125C190.845 10.7689 191.826 9.71212 193.091 8.95454C194.364 8.19697 195.856 7.81818 197.568 7.81818C198.72 7.81818 199.792 8.00379 200.784 8.375C201.784 8.73864 202.655 9.28788 203.398 10.0227C204.148 10.7576 204.731 11.6818 205.148 12.7955C205.564 13.9015 205.773 15.197 205.773 16.6818V18.0114H191.034V15.0114H201.216C201.216 14.3144 201.064 13.697 200.761 13.1591C200.458 12.6212 200.038 12.2008 199.5 11.8977C198.97 11.5871 198.352 11.4318 197.648 11.4318C196.913 11.4318 196.261 11.6023 195.693 11.9432C195.133 12.2765 194.693 12.7273 194.375 13.2955C194.057 13.8561 193.894 14.4811 193.886 15.1705V18.0227C193.886 18.8864 194.045 19.6326 194.364 20.2614C194.689 20.8902 195.148 21.375 195.739 21.7159C196.33 22.0568 197.03 22.2273 197.841 22.2273C198.379 22.2273 198.871 22.1515 199.318 22C199.765 21.8485 200.148 21.6212 200.466 21.3182C200.784 21.0152 201.027 20.6439 201.193 20.2045L205.67 20.5C205.443 21.5758 204.977 22.5152 204.273 23.3182C203.576 24.1136 202.674 24.7348 201.568 25.1818C200.47 25.6212 199.201 25.8409 197.761 25.8409ZM213.773 15.4091V25.5H208.932V8.04545H213.545V11.125H213.75C214.136 10.1098 214.784 9.30682 215.693 8.71591C216.602 8.11742 217.705 7.81818 219 7.81818C220.212 7.81818 221.269 8.08333 222.17 8.61364C223.072 9.14394 223.773 9.90151 224.273 10.8864C224.773 11.8636 225.023 13.0303 225.023 14.3864V25.5H220.182V15.25C220.189 14.1818 219.917 13.3485 219.364 12.75C218.811 12.1439 218.049 11.8409 217.08 11.8409C216.428 11.8409 215.852 11.9811 215.352 12.2614C214.86 12.5417 214.473 12.9508 214.193 13.4886C213.92 14.0189 213.78 14.6591 213.773 15.4091Z" fill="white"/>
</svg>
